<?xml version="1.0" encoding="utf-8"?>
<!-- Generator: Adobe Illustrator 18.0.0, SVG Export Plug-In . SVG Version: 6.00 Build 0)  -->
<!DOCTYPE svg PUBLIC "-//W3C//DTD SVG 1.1//EN" "http://www.w3.org/Graphics/SVG/1.1/DTD/svg11.dtd">
<svg version="1.1" id="Layer_1" xmlns="http://www.w3.org/2000/svg" xmlns:xlink="http://www.w3.org/1999/xlink" x="0px" y="0px"
	 viewBox="0 0 1400 1400" style="enable-background:new 0 0 1400 1400;" xml:space="preserve">
<style type="text/css">
	.st0{fill:#F2F2F2;}
	.st1{fill:#D6D6D6;}
	.st2{fill:#FFFFFF;}
	.st3{fill:#3A559F;}
	.st4{fill:#17366D;}
	.st5{fill:#9898F9;}
	.st6{fill:#CC001E;}
	.st7{fill:#F97575;}
	.st8{fill:#990016;}
	.st9{fill:#12BC18;}
	.st10{fill:#098409;}
	.st11{fill:#93F422;}
	.st12{fill:#00ACED;}
	.st13{fill:#78DFFF;}
	.st14{fill:#0487BA;}
	.st15{fill:#E80000;}
	.st16{fill:#FF5757;}
	.st17{fill:#A50404;}
	.st18{fill:url(#SVGID_1_);}
	.st19{opacity:0.78;}
	.st20{fill:#D780FF;}
	.st21{fill:url(#SVGID_2_);}
	.st22{fill:url(#SVGID_3_);}
	.st23{fill:url(#SVGID_4_);}
	.st24{opacity:0.71;}
	.st25{fill:url(#SVGID_5_);}
	.st26{fill:url(#SVGID_6_);}
	.st27{fill:url(#SVGID_7_);}
	.st28{fill:#0077B5;}
	.st29{fill:#3AA7F9;}
	.st30{fill:#024F84;}
	.st31{fill:#EA2F2A;}
	.st32{fill:#FF6464;}
	.st33{fill:#AA0F0F;}
	.st34{fill:#FFE000;}
	.st35{fill:#FFFF73;}
	.st36{fill:#EDB015;}
</style>
<rect y="0" class="st0" width="1400" height="1400"/>
<g>
	<circle class="st1" cx="326.8" cy="346.5" r="155"/>
	<circle class="st1" cx="326.8" cy="724.5" r="155"/>
	<circle class="st1" cx="326.8" cy="1102.5" r="155"/>
	<circle class="st1" cx="725.8" cy="346.5" r="155"/>
	<circle class="st1" cx="725.8" cy="724.5" r="155"/>
	<circle class="st1" cx="725.8" cy="1102.5" r="155"/>
	<circle class="st1" cx="1115.8" cy="346.5" r="155"/>
	<circle class="st1" cx="1115.8" cy="724.5" r="155"/>
	<circle class="st1" cx="1115.8" cy="1102.5" r="155"/>
</g>
<circle class="st2" cx="301.8" cy="321.5" r="155"/>
<circle class="st2" cx="301.8" cy="699.5" r="155"/>
<circle class="st2" cx="301.8" cy="1077.5" r="155"/>
<circle class="st2" cx="700.8" cy="321.5" r="155"/>
<circle class="st2" cx="700.8" cy="699.5" r="155"/>
<circle class="st2" cx="700.8" cy="1077.5" r="155"/>
<circle class="st2" cx="1090.8" cy="321.5" r="155"/>
<circle class="st2" cx="1090.8" cy="699.5" r="155"/>
<circle class="st2" cx="1090.8" cy="1077.5" r="155"/>
<g>
	<circle class="st3" cx="301.8" cy="321.5" r="128"/>
	<g>
		<g>
			<path class="st4" d="M289.3,419.9c0.1-15.4,0.2-30.8,0.3-46.2c0-8.2-0.2-16.4,0.1-24.6c0.1-4.1-0.9-5.9-5.4-5.5
				c-5.5,0.4-11.1,0-16.7,0.1c-2.7,0.1-4-0.6-4-3.6c0.2-8.2,0.1-16.4,0-24.6c0-2.8,1-3.9,3.8-3.9c7.2,0.1,14.3,0,22.1,0
				c0-4.6-0.1-8.8,0-13c0.2-6.7-0.4-13.6,1-20.1c3.4-16.4,17.3-27.3,34.1-27.7c7.8-0.2,15.6,0.1,23.3-0.1c3-0.1,4.2,0.8,4.1,4
				c-0.2,7.2-0.2,14.4,0,21.6c0.1,2.9-1.1,3.9-3.9,3.8c-5.1-0.1-10.3-0.1-15.4,0c-7.1,0.1-10.8,3.8-10.9,10.9
				c-0.1,5.6,0.1,11.2-0.1,16.7c-0.1,3.1,1.1,4,4.1,4c8.2-0.2,16.4-0.1,25.6-0.1c-1.4,10.9-2.7,21.2-4.1,32c-8.4,0-16.6,0-25.5,0
				c0,25.8,0,51.1,0,76.4C311,419.9,300.1,419.9,289.3,419.9z"/>
		</g>
	</g>
	<g>
		<path class="st2" d="M276.6,407.2c0.1-15.4,0.2-30.8,0.3-46.2c0-8.2-0.2-16.4,0.1-24.6c0.1-4.1-0.9-5.9-5.4-5.5
			c-5.5,0.4-11.1,0-16.7,0.1c-2.7,0.1-4-0.6-4-3.6c0.2-8.2,0.1-16.4,0-24.6c0-2.8,1-3.9,3.8-3.9c7.2,0.1,14.3,0,22.1,0
			c0-4.6-0.1-8.8,0-13c0.2-6.7-0.4-13.6,1-20.1c3.4-16.4,17.3-27.3,34.1-27.7c7.8-0.2,15.6,0.1,23.3-0.1c3-0.1,4.2,0.8,4.1,4
			c-0.2,7.2-0.2,14.4,0,21.6c0.1,2.9-1.1,3.9-3.9,3.8c-5.1-0.1-10.3-0.1-15.4,0c-7.1,0.1-10.8,3.8-10.9,10.9
			c-0.1,5.6,0.1,11.2-0.1,16.7c-0.1,3.1,1.1,4,4.1,4c8.2-0.2,16.4-0.1,25.6-0.1c-1.4,10.9-2.7,21.2-4.1,32c-8.4,0-16.6,0-25.5,0
			c0,25.8,0,51.1,0,76.4C298.3,407.2,287.5,407.2,276.6,407.2z"/>
	</g>
	<g>
		<g>
			<g>
				<path class="st5" d="M195.1,327.5c-3.3,0-6-2.7-6-6c0-32.6,14.1-63.6,38.7-85c2.5-2.2,6.3-1.9,8.5,0.6c2.2,2.5,1.9,6.3-0.6,8.5
					c-22,19.1-34.6,46.8-34.6,76C201.1,324.8,198.5,327.5,195.1,327.5z"/>
			</g>
		</g>
		<g>
			<g>
				<path class="st5" d="M249.1,234.7c-2.1,0-4.1-1.1-5.2-3c-1.6-2.9-0.6-6.5,2.2-8.2c7.1-4,14.6-7.3,22.3-9.7c3.2-1,6.5,0.8,7.5,4
					c1,3.2-0.8,6.5-4,7.5c-6.9,2.1-13.6,5-19.9,8.6C251.2,234.5,250.1,234.7,249.1,234.7z"/>
			</g>
		</g>
	</g>
	<g>
		<g>
			<path class="st3" d="M301.8,481.4c-41,0-81.9-15.6-113.1-46.8c-62.4-62.4-62.4-163.9,0-226.3c30.2-30.2,70.4-46.9,113.1-46.9
				c42.7,0,82.9,16.6,113.1,46.9c2.3,2.3,2.3,6.1,0,8.5c-2.3,2.3-6.1,2.3-8.5,0c-28-28-65.1-43.3-104.7-43.3s-76.7,15.4-104.7,43.3
				c-57.7,57.7-57.7,151.6,0,209.3c57.7,57.7,151.6,57.7,209.3,0c2.3-2.3,6.1-2.3,8.5,0c2.3,2.3,2.3,6.1,0,8.5
				C383.8,465.8,342.8,481.4,301.8,481.4z"/>
		</g>
		<g>
			<path class="st3" d="M452.5,359.4c-0.4,0-0.8,0-1.2-0.1c-3.2-0.7-5.3-3.9-4.6-7.1c0.9-4.5,1.7-9,2.2-13.5
				c0.4-3.3,3.3-5.6,6.6-5.3c3.3,0.4,5.7,3.4,5.3,6.6c-0.6,4.9-1.4,9.8-2.4,14.6C457.8,357.4,455.3,359.4,452.5,359.4z"/>
		</g>
		<g>
			<path class="st3" d="M455.4,316.9c-3.1,0-5.8-2.4-6-5.6c-1-14.8-4.2-29.2-9.5-43c-2.1-5.5-4.6-11-7.4-16.2
				c-1.6-2.9-0.4-6.6,2.5-8.1c2.9-1.6,6.6-0.4,8.1,2.5c3,5.6,5.7,11.5,8,17.5c5.7,14.9,9.2,30.5,10.3,46.5c0.2,3.3-2.3,6.2-5.6,6.4
				C455.7,316.9,455.6,316.9,455.4,316.9z"/>
		</g>
	</g>
</g>
<g>
	<circle class="st6" cx="700.2" cy="321.5" r="128"/>
	<g>
		<g>
			<g>
				<g>
					<path class="st7" d="M593.5,327.5c-3.3,0-6-2.7-6-6c0-32.6,14.1-63.6,38.7-85c2.5-2.2,6.3-1.9,8.5,0.6c2.2,2.5,1.9,6.3-0.6,8.5
						c-22,19.1-34.6,46.8-34.6,76C599.5,324.8,596.8,327.5,593.5,327.5z"/>
				</g>
			</g>
			<g>
				<g>
					<path class="st7" d="M647.5,234.7c-2.1,0-4.1-1.1-5.2-3c-1.6-2.9-0.6-6.5,2.2-8.2c7.1-4,14.6-7.3,22.3-9.7c3.2-1,6.5,0.8,7.5,4
						c1,3.2-0.8,6.5-4,7.5c-6.9,2.1-13.6,5-19.9,8.6C649.5,234.5,648.5,234.7,647.5,234.7z"/>
				</g>
			</g>
		</g>
	</g>
	<g>
		<g>
			<g>
				<path class="st6" d="M700.2,481.4c-41,0-81.9-15.6-113.1-46.8c-30.2-30.2-46.9-70.4-46.9-113.1c0-42.7,16.6-82.9,46.9-113.1
					c30.2-30.2,70.4-46.9,113.1-46.9c42.7,0,82.9,16.6,113.1,46.9c2.3,2.3,2.3,6.1,0,8.5c-2.3,2.3-6.1,2.3-8.5,0
					c-28-28-65.1-43.3-104.7-43.3s-76.7,15.4-104.7,43.3s-43.3,65.1-43.3,104.7c0,39.5,15.4,76.7,43.3,104.7
					c57.7,57.7,151.6,57.7,209.3,0c2.3-2.3,6.1-2.3,8.5,0c2.3,2.3,2.3,6.1,0,8.5C782.1,465.8,741.1,481.4,700.2,481.4z"/>
			</g>
		</g>
		<g>
			<g>
				<path class="st6" d="M850.9,359.4c-0.4,0-0.8,0-1.2-0.1c-3.2-0.7-5.3-3.9-4.6-7.1c0.9-4.5,1.7-9,2.2-13.5
					c0.4-3.3,3.4-5.6,6.6-5.3c3.3,0.4,5.7,3.4,5.3,6.6c-0.6,4.9-1.4,9.8-2.4,14.6C856.1,357.4,853.7,359.4,850.9,359.4z"/>
			</g>
		</g>
		<g>
			<g>
				<path class="st6" d="M853.8,316.9c-3.1,0-5.8-2.4-6-5.6c-1-14.8-4.2-29.2-9.5-43c-2.1-5.5-4.6-11-7.4-16.2
					c-1.6-2.9-0.4-6.6,2.5-8.1c2.9-1.6,6.6-0.4,8.1,2.5c3,5.6,5.7,11.5,8,17.5c5.7,14.9,9.2,30.5,10.3,46.5c0.2,3.3-2.3,6.2-5.6,6.4
					C854.1,316.9,854,316.9,853.8,316.9z"/>
			</g>
		</g>
	</g>
	<g>
		<g>
			<g>
				<path class="st8" d="M700.9,356.5c-0.6,2.2-1.1,4.4-1.7,6.6c-1.4,5.3-2.8,10.7-4.1,16c-1.9,7.8-5.3,15-9.6,21.7
					c-2.4,3.8-5.1,7.4-7.7,11.1c-0.4,0.6-1,1.1-1.7,0.7c-0.5-0.3-0.9-0.9-1-1.5c-1.2-8.2-1.7-16.5-1.2-24.8
					c0.4-6.1,1.9-11.9,3.3-17.8c3.3-14.1,6.7-28.1,9.9-42.2c0.1-0.5,0-1.2-0.2-1.7c-3.1-8.6-3.7-17.2-0.3-25.8
					c1.9-4.7,4.9-8.6,9.6-10.9c5-2.4,11-1.8,14.7,1.6c2.8,2.5,3.9,5.9,4.1,9.5c0.3,4.4-0.7,8.6-1.9,12.8c-2,6.9-4,13.8-6,20.7
					c-1.1,3.9-1.1,7.7,0.9,11.3c2.5,4.5,6.4,7,11.4,7.6c7.4,0.8,13.3-2.3,18.2-7.5c4.9-5.2,7.8-11.5,9.9-18.2
					c2.1-6.7,3-13.5,3.3-20.5c0.2-5.8-0.2-11.5-2.3-16.9c-3.6-9.6-10.4-16.1-20.1-19.3c-13.5-4.5-26.8-3.8-39.4,3
					c-12.4,6.7-19.5,17.4-22,31.3c-0.8,4.7-0.9,9.5,0,14.2c0.8,4.3,2.6,8.3,5.5,11.6c1.6,1.8,2,3.6,1.3,5.8
					c-0.7,2.2-1.2,4.5-1.8,6.8c-0.7,2.7-2.5,3.6-5.1,2.5c-7-3-11.8-8.2-14.8-15c-5-11.5-5.5-23.4-1.8-35.3
					c5.3-17.2,16.4-29.6,32.7-37c17.2-7.7,35-9,53-3.2c13.9,4.5,24.6,13.2,31.7,26c4.1,7.4,6.2,15.4,6.2,24c0,12-2,23.6-7.1,34.5
					c-4.7,10.1-11.4,18.4-21.2,23.9c-8.4,4.7-17.4,6.7-27,5.3c-5.9-0.9-11.1-3.4-15.3-7.7C702.5,358.7,701.8,357.6,700.9,356.5z"/>
			</g>
		</g>
	</g>
	<g>
		<path class="st2" d="M690.4,346c-0.6,2.2-1.1,4.4-1.7,6.6c-1.4,5.3-2.8,10.7-4.1,16c-1.9,7.8-5.3,15-9.6,21.7
			c-2.4,3.8-5.1,7.4-7.7,11.1c-0.4,0.6-1,1.1-1.7,0.7c-0.5-0.3-0.9-0.9-1-1.5c-1.2-8.2-1.7-16.5-1.2-24.8c0.4-6.1,1.9-11.9,3.3-17.8
			c3.3-14.1,6.7-28.1,9.9-42.2c0.1-0.5,0-1.2-0.2-1.7c-3.1-8.6-3.7-17.2-0.3-25.8c1.9-4.7,4.9-8.6,9.6-10.9c5-2.4,11-1.8,14.7,1.6
			c2.8,2.5,3.9,5.9,4.1,9.5c0.3,4.4-0.7,8.6-1.9,12.8c-2,6.9-4,13.8-6,20.7c-1.1,3.9-1.1,7.7,0.9,11.3c2.5,4.5,6.4,7,11.4,7.6
			c7.4,0.8,13.3-2.3,18.2-7.5c4.9-5.2,7.8-11.5,9.9-18.2c2.1-6.7,3-13.5,3.3-20.5c0.2-5.8-0.2-11.5-2.3-16.9
			c-3.6-9.6-10.4-16.1-20.1-19.3c-13.5-4.5-26.8-3.8-39.4,3c-12.4,6.7-19.5,17.4-22,31.3c-0.8,4.7-0.9,9.5,0,14.2
			c0.8,4.3,2.6,8.3,5.5,11.6c1.6,1.8,2,3.6,1.3,5.8c-0.7,2.2-1.2,4.5-1.8,6.8c-0.7,2.7-2.5,3.6-5.1,2.5c-7-3-11.8-8.2-14.8-15
			c-5-11.5-5.5-23.4-1.8-35.3c5.3-17.2,16.4-29.6,32.7-37c17.2-7.7,35-9,53-3.2c13.9,4.5,24.6,13.2,31.7,26c4.1,7.4,6.2,15.4,6.2,24
			c0,12-2,23.6-7.1,34.5c-4.7,10.1-11.4,18.4-21.2,23.9c-8.4,4.7-17.4,6.7-27,5.3c-5.9-0.9-11.1-3.4-15.3-7.7
			C692,348.2,691.3,347.1,690.4,346z"/>
	</g>
</g>
<g>
	<circle class="st9" cx="1091.9" cy="321.5" r="128"/>
	<g>
		<g>
			<path class="st10" d="M1020.2,411.1c2.6-8.4,4.7-15.1,6.9-21.7c1.9-5.9,4.2-11.6,5.8-17.6c0.6-2.3,0.3-5.4-0.8-7.6
				c-22.7-44.7,0.1-98.3,47.5-112.6c43.7-13.2,89.2,13.1,99.7,57.6c10.6,45.5-18.6,87.2-61.7,96.1c-14.8,3-29.9,2.7-43.6-4.2
				c-9.1-4.6-17-1.9-25.4,0.9C1039.8,405.1,1031,407.7,1020.2,411.1z M1042.4,389c6.5-2.1,12.1-3.7,17.5-5.7
				c4.1-1.5,7.5-1.5,11.5,0.9c13.8,8.3,29.2,9.7,44.4,6.6c37.4-7.7,59.1-45.7,47.9-82.8c-9.8-32.3-42.2-51.6-76.8-43.3
				c-39.1,9.4-60.5,52-43.3,88.2c5.8,12.2,4.6,21.5,0.2,32.3C1043.3,386.1,1043.1,387,1042.4,389z"/>
			<path class="st10" d="M1076.5,287.8c5.2,0.2,7.8,2.5,9.2,6.7c1.6,4.6,3.8,9,4.7,13.6c0.4,2.3-1.1,5.6-2.8,7.5
				c-3.6,3.8-3.7,7-0.6,11.2c5.7,7.8,12.4,14.1,21,18.6c3.8,2,6.1,1.5,8.3-1.7c6.6-9.6,9-6.1,16.4-2.6c1.6,0.7,3,1.7,4.5,2.6
				c7.2,4.1,7.9,12.7,1.4,18c-7.3,6-15.4,7-24.4,4c-24.2-8.1-40.1-25-50-47.7c-3.8-8.8-2.5-18,4.4-25.4
				C1070.6,290.4,1073.9,289.4,1076.5,287.8z"/>
		</g>
	</g>
	<g>
		<g>
			<g>
				<g>
					<path class="st11" d="M985.3,327.5c-3.3,0-6-2.7-6-6c0-32.6,14.1-63.6,38.7-85c2.5-2.2,6.3-1.9,8.5,0.6
						c2.2,2.5,1.9,6.3-0.6,8.5c-22,19.1-34.6,46.8-34.6,76C991.3,324.8,988.6,327.5,985.3,327.5z"/>
				</g>
			</g>
			<g>
				<g>
					<path class="st11" d="M1039.2,234.7c-2.1,0-4.1-1.1-5.2-3c-1.6-2.9-0.6-6.5,2.2-8.2c7.1-4,14.6-7.3,22.3-9.7
						c3.2-1,6.5,0.8,7.5,4c1,3.2-0.8,6.5-4,7.5c-6.9,2.1-13.6,5-19.9,8.6C1041.3,234.5,1040.3,234.7,1039.2,234.7z"/>
				</g>
			</g>
		</g>
	</g>
	<g>
		<g>
			<g>
				<path class="st9" d="M1091.9,481.4c-41,0-81.9-15.6-113.1-46.8c-30.2-30.2-46.9-70.4-46.9-113.1c0-42.7,16.6-82.9,46.9-113.1
					c30.2-30.2,70.4-46.9,113.1-46.9c42.7,0,82.9,16.6,113.1,46.9c2.3,2.3,2.3,6.1,0,8.5c-2.3,2.3-6.1,2.3-8.5,0
					c-28-28-65.1-43.3-104.7-43.3c-39.5,0-76.7,15.4-104.7,43.3c-28,28-43.3,65.1-43.3,104.7c0,39.5,15.4,76.7,43.3,104.7
					c57.7,57.7,151.6,57.7,209.3,0c2.3-2.3,6.1-2.3,8.5,0c2.3,2.3,2.3,6.1,0,8.5C1173.9,465.8,1132.9,481.4,1091.9,481.4z"/>
			</g>
		</g>
		<g>
			<g>
				<path class="st9" d="M1242.6,359.4c-0.4,0-0.8,0-1.2-0.1c-3.2-0.7-5.3-3.9-4.6-7.1c0.9-4.5,1.7-9,2.2-13.5
					c0.4-3.3,3.4-5.6,6.6-5.3c3.3,0.4,5.7,3.4,5.3,6.6c-0.6,4.9-1.4,9.8-2.4,14.6C1247.9,357.4,1245.4,359.4,1242.6,359.4z"/>
			</g>
		</g>
		<g>
			<g>
				<path class="st9" d="M1245.6,316.9c-3.1,0-5.8-2.4-6-5.6c-1-14.8-4.2-29.2-9.5-43c-2.1-5.5-4.6-11-7.4-16.2
					c-1.6-2.9-0.4-6.6,2.5-8.1c2.9-1.6,6.6-0.4,8.1,2.5c3,5.7,5.7,11.5,8,17.5c5.7,14.9,9.2,30.5,10.3,46.5c0.2,3.3-2.3,6.2-5.6,6.4
					C1245.8,316.9,1245.7,316.9,1245.6,316.9z"/>
			</g>
		</g>
	</g>
	<g>
		<path class="st2" d="M1013.3,404.2c2.6-8.4,4.7-15.1,6.9-21.7c1.9-5.9,4.2-11.6,5.8-17.6c0.6-2.3,0.3-5.4-0.8-7.6
			c-22.7-44.7,0.1-98.3,47.5-112.6c43.7-13.2,89.2,13.1,99.7,57.6c10.6,45.5-18.6,87.2-61.7,96.1c-14.8,3-29.9,2.7-43.6-4.2
			c-9.1-4.6-17-1.9-25.4,0.9C1032.9,398.1,1024.1,400.8,1013.3,404.2z M1035.5,382.1c6.5-2.1,12.1-3.7,17.5-5.7
			c4.1-1.5,7.5-1.5,11.5,0.9c13.8,8.3,29.2,9.7,44.4,6.6c37.4-7.7,59.1-45.7,47.9-82.8c-9.8-32.3-42.2-51.6-76.8-43.3
			c-39.1,9.4-60.5,52-43.3,88.2c5.8,12.2,4.6,21.5,0.2,32.3C1036.4,379.2,1036.2,380.1,1035.5,382.1z"/>
		<path class="st2" d="M1069.6,280.9c5.2,0.2,7.8,2.5,9.2,6.7c1.6,4.6,3.8,9,4.7,13.6c0.4,2.3-1.1,5.6-2.8,7.5
			c-3.6,3.8-3.7,7-0.6,11.2c5.7,7.8,12.4,14.1,21,18.6c3.8,2,6.1,1.5,8.3-1.7c6.6-9.6,9-6.1,16.4-2.6c1.6,0.7,3,1.7,4.5,2.6
			c7.2,4.1,7.9,12.7,1.4,18c-7.3,6-15.4,7-24.4,4c-24.2-8.1-40.1-25-50-47.7c-3.8-8.8-2.5-18,4.4-25.4
			C1063.7,283.5,1066.9,282.5,1069.6,280.9z"/>
	</g>
</g>
<g>
	<circle class="st12" cx="1091.9" cy="700" r="128"/>
	<g>
		<g>
			<g>
				<g>
					<path class="st13" d="M985.2,706c-3.3,0-6-2.7-6-6c0-32.6,14.1-63.6,38.7-85c2.5-2.2,6.3-1.9,8.5,0.6c2.2,2.5,1.9,6.3-0.6,8.5
						c-22,19.1-34.6,46.8-34.6,76C991.2,703.4,988.5,706,985.2,706z"/>
				</g>
			</g>
			<g>
				<g>
					<path class="st13" d="M1039.2,613.3c-2.1,0-4.1-1.1-5.2-3c-1.6-2.9-0.6-6.5,2.2-8.2c7.1-4,14.6-7.3,22.3-9.7
						c3.2-1,6.5,0.8,7.5,4c1,3.2-0.8,6.5-4,7.5c-6.9,2.1-13.6,5-19.9,8.6C1041.2,613,1040.2,613.3,1039.2,613.3z"/>
				</g>
			</g>
		</g>
	</g>
	<g>
		<g>
			<g>
				<path class="st12" d="M1091.9,860c-41,0-81.9-15.6-113.1-46.8c-62.4-62.4-62.4-163.9,0-226.3c30.2-30.2,70.4-46.9,113.1-46.9
					c42.7,0,82.9,16.6,113.1,46.9c2.3,2.3,2.3,6.1,0,8.5c-2.3,2.3-6.1,2.3-8.5,0c-28-28-65.1-43.3-104.7-43.3s-76.7,15.4-104.7,43.3
					c-57.7,57.7-57.7,151.6,0,209.3c57.7,57.7,151.6,57.7,209.3,0c2.3-2.3,6.1-2.3,8.5,0c2.3,2.3,2.3,6.1,0,8.5
					C1173.8,844.4,1132.9,860,1091.9,860z"/>
			</g>
		</g>
		<g>
			<g>
				<path class="st12" d="M1242.6,737.9c-0.4,0-0.8,0-1.2-0.1c-3.2-0.7-5.3-3.9-4.6-7.1c0.9-4.5,1.7-9,2.2-13.5
					c0.4-3.3,3.3-5.7,6.6-5.3c3.3,0.4,5.7,3.4,5.3,6.6c-0.6,4.9-1.4,9.8-2.4,14.6C1247.9,736,1245.4,737.9,1242.6,737.9z"/>
			</g>
		</g>
		<g>
			<g>
				<path class="st12" d="M1245.5,695.5c-3.1,0-5.8-2.4-6-5.6c-1-14.8-4.2-29.2-9.5-43c-2.1-5.5-4.6-11-7.4-16.2
					c-1.6-2.9-0.4-6.6,2.5-8.1c2.9-1.6,6.6-0.4,8.1,2.5c3,5.6,5.7,11.5,8,17.5c5.7,14.9,9.2,30.5,10.3,46.5c0.2,3.3-2.3,6.2-5.6,6.4
					C1245.8,695.5,1245.7,695.5,1245.5,695.5z"/>
			</g>
		</g>
	</g>
	<g>
		<g>
			<path class="st14" d="M1025.6,772.8c12.6,1.2,24.6-0.6,36.1-5.7c5.2-2.3,10.1-5.2,14.5-8.9c-2.9-0.2-5.6-0.6-8.4-1.4
				c-2.7-0.8-5.3-1.8-7.8-3.2c-2.5-1.4-4.8-3.1-6.8-5.1c-2.1-1.9-3.8-4.1-5.4-6.5c-1.5-2.4-2.8-4.9-3.7-7.8c0.4,0,0.7,0,1,0.1
				c4.6,0.8,9.1,0.5,13.7-0.6c0.2-0.1,0.5-0.2,0.7-0.3c-10.4-2.5-18.4-8.3-23.5-17.8c-2.8-5.1-4-10.5-4-16.4c2.5,1.3,5,2.3,7.6,3
				c2.6,0.7,5.2,1.1,7.9,1.1c-10.1-7.4-15.3-17.3-15.2-29.8c0.1-5.8,1.7-11.1,4.6-16.2c13.7,16.4,30.7,27.5,51.3,33
				c6.6,1.8,13.3,2.8,20.2,3.1c-0.1-0.6-0.2-1.1-0.3-1.6c-3.4-18.4,8.3-36,26.1-40c12.5-2.8,23.4,0.5,32.6,9.4
				c0.4,0.4,0.8,0.6,1.4,0.5c7.1-1.5,13.8-4,20.1-7.6c0.3-0.1,0.5-0.3,1-0.5c-0.1,0.4-0.2,0.7-0.3,1c-2.7,7.3-7.3,13-13.8,17.3
				c-0.2,0.2-0.5,0.3-0.7,0.6c6.7-0.7,13-2.4,19.2-5.1c0,0.4-0.3,0.6-0.4,0.8c-4.3,6.2-9.6,11.6-15.7,16.1c-0.6,0.5-0.8,0.9-0.8,1.7
				c0.2,3.4,0.1,6.9-0.2,10.3c-0.4,5.9-1.4,11.8-2.9,17.5c-4.3,16.3-11.9,30.8-23.3,43.3c-13,14.3-28.9,23.6-47.7,28.1
				c-4.4,1.1-8.8,1.7-13.3,2.2c-5.4,0.6-10.7,0.6-16.1,0.4c-12.1-0.5-23.7-3.4-34.8-8.3c-4.1-1.8-8.1-3.9-11.9-6.3
				C1026.1,773.1,1025.8,773,1025.6,772.8z M1118.8,774c0.1,0,0.1,0,0.2,0c0-0.1,0-0.3,0-0.4c0,0-0.1,0-0.1,0
				C1118.8,773.7,1118.8,773.9,1118.8,774z"/>
			<path class="st14" d="M1120.8,775c0-0.1,0-0.3,0-0.4c0,0,0.1,0,0.1,0c0,0.1,0,0.3,0,0.4C1120.9,775,1120.8,775,1120.8,775z"/>
		</g>
	</g>
	<g>
		<path class="st2" d="M1012.9,762.2c12.6,1.2,24.6-0.6,36.1-5.7c5.2-2.3,10.1-5.2,14.5-8.9c-2.9-0.2-5.6-0.6-8.4-1.4
			c-2.7-0.8-5.3-1.8-7.8-3.2c-2.5-1.4-4.8-3.1-6.8-5.1c-2.1-1.9-3.8-4.1-5.4-6.5c-1.5-2.4-2.8-4.9-3.7-7.8c0.4,0,0.7,0,1,0.1
			c4.6,0.8,9.1,0.5,13.7-0.6c0.2-0.1,0.5-0.2,0.7-0.3c-10.4-2.5-18.4-8.3-23.5-17.8c-2.8-5.1-4-10.5-4-16.4c2.5,1.3,5,2.3,7.6,3
			c2.6,0.7,5.2,1.1,7.9,1.1c-10.1-7.4-15.3-17.3-15.2-29.8c0.1-5.8,1.7-11.1,4.6-16.2c13.7,16.4,30.7,27.5,51.3,33
			c6.6,1.8,13.3,2.8,20.2,3.1c-0.1-0.6-0.2-1.1-0.3-1.6c-3.4-18.4,8.3-36,26.1-40c12.5-2.8,23.4,0.5,32.6,9.4
			c0.4,0.4,0.8,0.6,1.4,0.5c7.1-1.5,13.8-4,20.1-7.6c0.3-0.1,0.5-0.3,1-0.5c-0.1,0.4-0.2,0.7-0.3,1c-2.7,7.3-7.3,13-13.8,17.3
			c-0.2,0.2-0.5,0.3-0.7,0.6c6.7-0.7,13-2.4,19.2-5.1c0,0.4-0.3,0.6-0.4,0.8c-4.3,6.2-9.6,11.6-15.7,16.1c-0.6,0.5-0.8,0.9-0.8,1.7
			c0.2,3.4,0.1,6.9-0.2,10.3c-0.4,5.9-1.4,11.8-2.9,17.5c-4.3,16.3-11.9,30.8-23.3,43.3c-13,14.3-28.9,23.6-47.7,28.1
			c-4.4,1.1-8.8,1.7-13.3,2.2c-5.4,0.6-10.7,0.6-16.1,0.4c-12.1-0.5-23.7-3.4-34.8-8.3c-4.1-1.8-8.1-3.9-11.9-6.3
			C1013.4,762.5,1013.2,762.3,1012.9,762.2z M1106.1,763.4c0.1,0,0.1,0,0.2,0c0-0.1,0-0.3,0-0.4c0,0-0.1,0-0.1,0
			C1106.1,763.1,1106.1,763.2,1106.1,763.4z"/>
		<path d="M1106.1,761.4c0-0.1,0-0.3,0-0.4c0,0,0.1,0,0.1,0c0,0.1,0,0.3,0,0.4C1106.2,761.4,1106.2,761.4,1106.1,761.4z"/>
	</g>
</g>
<g>
	<circle class="st15" cx="301.9" cy="700" r="128"/>
	<g>
		<g>
			<g>
				<g>
					<path class="st16" d="M195.2,706c-3.3,0-6-2.7-6-6c0-32.6,14.1-63.6,38.7-85c2.5-2.2,6.3-1.9,8.5,0.6c2.2,2.5,1.9,6.3-0.6,8.5
						c-22,19.1-34.6,46.8-34.6,76C201.2,703.4,198.5,706,195.2,706z"/>
				</g>
			</g>
			<g>
				<g>
					<g>
						<path class="st16" d="M249.2,613.3c-2.1,0-4.1-1.1-5.2-3c-1.6-2.9-0.6-6.5,2.2-8.2c7.1-4,14.6-7.3,22.3-9.7
							c3.2-1,6.5,0.8,7.5,4c1,3.2-0.8,6.5-4,7.5c-6.9,2.1-13.6,5-19.9,8.6C251.2,613,250.2,613.3,249.2,613.3z"/>
					</g>
				</g>
			</g>
		</g>
	</g>
	<g>
		<g>
			<g>
				<path class="st15" d="M301.8,860c-41,0-81.9-15.6-113.1-46.8c-30.2-30.2-46.9-70.4-46.9-113.1s16.6-82.9,46.9-113.1
					c30.2-30.2,70.4-46.9,113.1-46.9c42.7,0,82.9,16.6,113.1,46.9c2.3,2.3,2.3,6.1,0,8.5c-2.3,2.3-6.1,2.3-8.5,0
					c-28-28-65.1-43.3-104.7-43.3s-76.7,15.4-104.7,43.3s-43.3,65.1-43.3,104.7s15.4,76.7,43.3,104.7c57.7,57.7,151.6,57.7,209.3,0
					c2.3-2.3,6.1-2.3,8.5,0c2.3,2.3,2.3,6.1,0,8.5C383.8,844.4,342.8,860,301.8,860z"/>
			</g>
		</g>
		<g>
			<g>
				<path class="st15" d="M452.5,737.9c-0.4,0-0.8,0-1.2-0.1c-3.2-0.7-5.3-3.9-4.6-7.1c0.9-4.5,1.7-9,2.2-13.5
					c0.4-3.3,3.4-5.7,6.6-5.3c3.3,0.4,5.7,3.4,5.3,6.6c-0.6,4.9-1.4,9.8-2.4,14.6C457.8,736,455.3,737.9,452.5,737.9z"/>
			</g>
		</g>
		<g>
			<g>
				<path class="st15" d="M455.5,695.5c-3.1,0-5.8-2.4-6-5.6c-1-14.8-4.2-29.2-9.5-43c-2.1-5.5-4.6-11-7.4-16.2
					c-1.6-2.9-0.4-6.6,2.5-8.1c2.9-1.6,6.6-0.4,8.1,2.5c3,5.6,5.7,11.5,8,17.5c5.7,14.9,9.2,30.5,10.3,46.5c0.2,3.3-2.3,6.2-5.6,6.4
					C455.8,695.5,455.6,695.5,455.5,695.5z"/>
			</g>
		</g>
	</g>
	<path class="st17" d="M388.3,691.1c-0.4-5.1-1.1-10.1-2.7-15c-2.7-8-8.1-12.6-16.1-13.8c-4.9-0.7-9.9-1-14.8-1.2
		c-9.2-0.4-18.3-0.7-27.5-0.8c-11.5-0.1-22.9,0-34.4,0.1c-8.8,0.1-17.7,0.5-26.5,0.8c-4.9,0.2-9.8,0.3-14.6,1.4
		c-5.2,1.3-9.3,4.1-12,8.8c-2.2,3.8-3.4,7.9-3.9,12.2c-0.6,4.9-1.1,9.9-1.3,14.8c-0.6,13.9-0.7,27.8,0.4,41.7c0.4,5.8,1,11.5,3,17
		c1.8,5,4.7,8.8,9.4,11.1c3.9,1.9,8.2,2.4,12.4,2.8c5.5,0.5,11.1,0.7,16.6,0.8c11.8,0.3,23.6,0.6,35.4,0.8c0-0.1,0-0.2,0-0.3
		c5.9,0,11.8,0.1,17.6,0c10.7-0.3,21.4-0.7,32.1-1.1c3.3-0.1,6.7-0.4,10-1.2c6-1.3,10.4-4.8,13.1-10.6c1.6-3.5,2.7-7.1,3.1-10.8
		c0.7-6.9,1.3-13.7,1.5-20.6C389.4,715.8,389.4,703.4,388.3,691.1z"/>
	<g>
		<path class="st2" d="M300,760.2c-11.8-0.3-23.6-0.5-35.4-0.8c-5.5-0.2-11.1-0.4-16.6-0.8c-4.2-0.4-8.4-0.9-12.4-2.8
			c-4.7-2.3-7.7-6.1-9.4-11.1c-2-5.5-2.6-11.3-3-17c-1-13.9-0.9-27.8-0.4-41.7c0.2-4.9,0.7-9.9,1.3-14.8c0.5-4.3,1.7-8.5,3.9-12.2
			c2.7-4.7,6.8-7.6,12-8.8c4.8-1.2,9.7-1.2,14.6-1.4c8.8-0.4,17.7-0.7,26.5-0.8c11.5-0.2,22.9-0.2,34.4-0.1
			c9.2,0.1,18.3,0.4,27.5,0.8c5,0.2,9.9,0.5,14.8,1.2c8,1.1,13.5,5.8,16.1,13.8c1.6,4.9,2.3,9.9,2.7,15c1.1,12.3,1,24.7,0.7,37
			c-0.2,6.9-0.8,13.8-1.5,20.6c-0.4,3.8-1.5,7.4-3.1,10.8c-2.6,5.8-7.1,9.3-13.1,10.6c-3.3,0.7-6.7,1-10,1.2
			c-10.7,0.5-21.4,0.8-32.1,1.1c-5.9,0.2-11.7,0-17.6,0C300.1,760,300,760.1,300,760.2z M284,679.6c0,15.1,0,29.9,0,45
			c14-7.5,27.9-14.9,41.9-22.4C311.9,694.6,298,687.2,284,679.6z"/>
		<path class="st15" d="M278.9,671.3c17.2,9.2,34.2,18.4,51.4,27.7c2.6,1.4,2.6,5.2,0,6.6c-17.2,9.2-34.2,18.3-51.4,27.5
			c-2.4,1.3-5.3-0.5-5.3-3.3v-55.1C273.6,671.8,276.5,670,278.9,671.3z"/>
	</g>
</g>
<g>
	<linearGradient id="SVGID_1_" gradientUnits="userSpaceOnUse" x1="591.9886" y1="581.2696" x2="811.5306" y2="822.3553">
		<stop  offset="0" style="stop-color:#6541C4"/>
		<stop  offset="4.845377e-002" style="stop-color:#6E3FC0"/>
		<stop  offset="0.1269" style="stop-color:#8638B6"/>
		<stop  offset="0.2255" style="stop-color:#AD2EA6"/>
		<stop  offset="0.3393" style="stop-color:#E22090"/>
		<stop  offset="0.37" style="stop-color:#F21C89"/>
		<stop  offset="0.4161" style="stop-color:#F32169"/>
		<stop  offset="0.4767" style="stop-color:#F32645"/>
		<stop  offset="0.5336" style="stop-color:#F42A2B"/>
		<stop  offset="0.5847" style="stop-color:#F42C1B"/>
		<stop  offset="0.6252" style="stop-color:#F42D16"/>
		<stop  offset="0.6606" style="stop-color:#F43616"/>
		<stop  offset="0.7179" style="stop-color:#F44E17"/>
		<stop  offset="0.79" style="stop-color:#F57519"/>
		<stop  offset="0.8736" style="stop-color:#F5AB1B"/>
		<stop  offset="0.9572" style="stop-color:#F6E81E"/>
	</linearGradient>
	<circle class="st18" cx="700.1" cy="700" r="128"/>
	<g class="st19">
		<g>
			<g>
				<g>
					<path class="st20" d="M593.5,706c-3.3,0-6-2.7-6-6c0-32.6,14.1-63.6,38.7-85c2.5-2.2,6.3-1.9,8.5,0.6c2.2,2.5,1.9,6.3-0.6,8.5
						c-22,19.1-34.6,46.8-34.6,76C599.5,703.4,596.8,706,593.5,706z"/>
				</g>
			</g>
			<g>
				<g>
					<g>
						<path class="st20" d="M647.5,613.3c-2.1,0-4.1-1.1-5.2-3c-1.6-2.9-0.6-6.5,2.2-8.2c7.1-4,14.6-7.3,22.3-9.7
							c3.2-1,6.5,0.8,7.5,4c1,3.2-0.8,6.5-4,7.5c-6.9,2.1-13.6,5-19.9,8.6C649.5,613,648.5,613.3,647.5,613.3z"/>
					</g>
				</g>
			</g>
		</g>
	</g>
	<g>
		<g>
			<g>
				<linearGradient id="SVGID_2_" gradientUnits="userSpaceOnUse" x1="591.9258" y1="581.3268" x2="811.4677" y2="822.4126">
					<stop  offset="0" style="stop-color:#6541C4"/>
					<stop  offset="0.4599" style="stop-color:#F21C89"/>
					<stop  offset="0.571" style="stop-color:#F33455"/>
					<stop  offset="0.6821" style="stop-color:#F44A28"/>
					<stop  offset="0.738" style="stop-color:#F45216"/>
					<stop  offset="0.7645" style="stop-color:#F46617"/>
					<stop  offset="0.8442" style="stop-color:#F59E1A"/>
					<stop  offset="0.9129" style="stop-color:#F6C61C"/>
					<stop  offset="0.9671" style="stop-color:#F6DF1E"/>
					<stop  offset="1" style="stop-color:#F6E81E"/>
				</linearGradient>
				<path class="st21" d="M700.1,860c-41,0-81.9-15.6-113.1-46.8c-62.4-62.4-62.4-163.9,0-226.3c30.2-30.2,70.4-46.9,113.1-46.9
					s82.9,16.6,113.1,46.9c2.3,2.3,2.3,6.1,0,8.5c-2.3,2.3-6.1,2.3-8.5,0c-28-28-65.1-43.3-104.7-43.3s-76.7,15.4-104.7,43.3
					c-57.7,57.7-57.7,151.6,0,209.3c57.7,57.7,151.6,57.7,209.3,0c2.3-2.3,6.1-2.3,8.5,0c2.3,2.3,2.3,6.1,0,8.5
					C782.1,844.4,741.1,860,700.1,860z"/>
			</g>
		</g>
		<g>
			<g>
				<linearGradient id="SVGID_3_" gradientUnits="userSpaceOnUse" x1="662.6379" y1="516.9337" x2="882.1799" y2="758.0194">
					<stop  offset="0" style="stop-color:#6541C4"/>
					<stop  offset="0.4599" style="stop-color:#F21C89"/>
					<stop  offset="0.571" style="stop-color:#F33455"/>
					<stop  offset="0.6821" style="stop-color:#F44A28"/>
					<stop  offset="0.738" style="stop-color:#F45216"/>
					<stop  offset="0.7645" style="stop-color:#F46617"/>
					<stop  offset="0.8442" style="stop-color:#F59E1A"/>
					<stop  offset="0.9129" style="stop-color:#F6C61C"/>
					<stop  offset="0.9671" style="stop-color:#F6DF1E"/>
					<stop  offset="1" style="stop-color:#F6E81E"/>
				</linearGradient>
				<path class="st22" d="M850.8,737.9c-0.4,0-0.8,0-1.2-0.1c-3.2-0.7-5.3-3.9-4.6-7.1c0.9-4.5,1.7-9,2.2-13.5
					c0.4-3.3,3.4-5.7,6.6-5.3c3.3,0.4,5.7,3.4,5.3,6.6c-0.6,4.9-1.4,9.8-2.4,14.6C856.1,736,853.6,737.9,850.8,737.9z"/>
			</g>
		</g>
		<g>
			<g>
				<linearGradient id="SVGID_4_" gradientUnits="userSpaceOnUse" x1="691.7802" y1="490.3957" x2="911.322" y2="731.4814">
					<stop  offset="0" style="stop-color:#6541C4"/>
					<stop  offset="0.4599" style="stop-color:#F21C89"/>
					<stop  offset="0.571" style="stop-color:#F33455"/>
					<stop  offset="0.6821" style="stop-color:#F44A28"/>
					<stop  offset="0.738" style="stop-color:#F45216"/>
					<stop  offset="0.7645" style="stop-color:#F46617"/>
					<stop  offset="0.8442" style="stop-color:#F59E1A"/>
					<stop  offset="0.9129" style="stop-color:#F6C61C"/>
					<stop  offset="0.9671" style="stop-color:#F6DF1E"/>
					<stop  offset="1" style="stop-color:#F6E81E"/>
				</linearGradient>
				<path class="st23" d="M853.8,695.5c-3.1,0-5.8-2.4-6-5.6c-1-14.8-4.2-29.2-9.5-43c-2.1-5.5-4.6-11-7.4-16.2
					c-1.6-2.9-0.4-6.6,2.5-8.1c2.9-1.6,6.6-0.4,8.1,2.5c3,5.6,5.7,11.5,8,17.5c5.7,14.9,9.2,30.5,10.3,46.5c0.2,3.3-2.3,6.2-5.6,6.4
					C854.1,695.5,853.9,695.5,853.8,695.5z"/>
			</g>
		</g>
	</g>
	<g>
		<g class="st24">
			<g>
				<linearGradient id="SVGID_5_" gradientUnits="userSpaceOnUse" x1="632.2636" y1="709.2125" x2="780.8591" y2="709.2125">
					<stop  offset="2.241704e-002" style="stop-color:#4F1C89"/>
					<stop  offset="0.1212" style="stop-color:#691777"/>
					<stop  offset="0.3162" style="stop-color:#970F57"/>
					<stop  offset="0.503" style="stop-color:#BB083E"/>
					<stop  offset="0.6771" style="stop-color:#D5042D"/>
					<stop  offset="0.8335" style="stop-color:#E50122"/>
					<stop  offset="0.9572" style="stop-color:#EA001E"/>
				</linearGradient>
				<path class="st25" d="M706.5,783.5c-7.2,0-14.3,0.1-21.5,0c-7-0.1-13.9-0.1-20.8-1.8c-16.6-4-26.7-14.4-30.4-30.9
					c-1.3-5.6-1.5-11.3-1.5-16.9c-0.1-16.4-0.1-32.8,0-49.3c0-6.8,0.4-13.5,2.3-20.1c4.6-15.2,14.8-24.4,30.2-27.9
					c5.6-1.3,11.3-1.5,16.9-1.6c16.5-0.1,32.9-0.1,49.4,0c6.5,0,13.1,0.4,19.5,2.2c15.7,4.4,25.1,14.8,28.6,30.6
					c1.5,6.6,1.5,13.4,1.6,20.1c0.1,14.2,0.1,28.4,0,42.6c0,7-0.1,14-1.7,20.9c-4,16.7-14.5,26.9-31.2,30.6
					c-6.5,1.4-13.1,1.5-19.7,1.6C721,783.6,713.8,783.5,706.5,783.5z M706.6,647.9c0,0.1,0,0.1,0,0.2c-6,0-12-0.1-17.9,0
					c-6.8,0.1-13.7,0-20.5,1.3c-10.7,2.1-17.8,8.3-20.8,19c-1.3,4.7-1.6,9.6-1.6,14.5c-0.1,15.3-0.2,30.6-0.2,45.9
					c0,6.3,0,12.6,1.3,18.8c2.2,10.8,8.4,17.9,19.1,20.8c4.6,1.3,9.3,1.6,13.9,1.6c17.7,0.1,35.5,0.1,53.2,0c3.9,0,7.8-0.4,11.6-1.1
					c10.9-2,18-8.3,21-19.1c1.3-4.8,1.6-9.6,1.6-14.5c0.1-17.4,0.1-34.7,0-52.1c0-4.5-0.3-8.9-1.3-13.3c-1.7-7.5-5.6-13.5-12.5-17.3
					c-4.9-2.7-10.4-3.8-15.9-3.9C727.3,648.3,716.9,648.1,706.6,647.9z"/>
				<linearGradient id="SVGID_6_" gradientUnits="userSpaceOnUse" x1="668.3671" y1="709.1983" x2="744.7222" y2="709.1983">
					<stop  offset="2.241704e-002" style="stop-color:#4F1C89"/>
					<stop  offset="0.1212" style="stop-color:#691777"/>
					<stop  offset="0.3162" style="stop-color:#970F57"/>
					<stop  offset="0.503" style="stop-color:#BB083E"/>
					<stop  offset="0.6771" style="stop-color:#D5042D"/>
					<stop  offset="0.8335" style="stop-color:#E50122"/>
					<stop  offset="0.9572" style="stop-color:#EA001E"/>
				</linearGradient>
				<path class="st26" d="M706.5,671c21.3,0.1,38.3,17.2,38.2,38.4c-0.1,21.1-17.3,38.1-38.5,38c-21.1-0.1-38-17.4-37.8-38.6
					C668.5,687.9,685.7,670.9,706.5,671z M706.6,684.3c-13.7,0-24.8,11.1-24.9,24.8c-0.1,13.7,11.1,24.9,24.9,24.9
					c13.8,0,24.9-11.1,24.9-24.9C731.4,695.5,720.3,684.3,706.6,684.3z"/>
				<linearGradient id="SVGID_7_" gradientUnits="userSpaceOnUse" x1="737.266" y1="669.5272" x2="755.1228" y2="669.5272">
					<stop  offset="2.241704e-002" style="stop-color:#4F1C89"/>
					<stop  offset="0.1212" style="stop-color:#691777"/>
					<stop  offset="0.3162" style="stop-color:#970F57"/>
					<stop  offset="0.503" style="stop-color:#BB083E"/>
					<stop  offset="0.6771" style="stop-color:#D5042D"/>
					<stop  offset="0.8335" style="stop-color:#E50122"/>
					<stop  offset="0.9572" style="stop-color:#EA001E"/>
				</linearGradient>
				<path class="st27" d="M746.3,678.4c-4.9,0.1-8.9-3.8-9.1-8.7c-0.2-4.8,3.8-9,8.7-9.1c4.9-0.1,9.1,3.8,9.2,8.7
					C755.2,674.2,751.3,678.3,746.3,678.4z"/>
			</g>
		</g>
		<g>
			<path class="st2" d="M699.7,776.7c-7.2,0-14.3,0.1-21.5,0c-7-0.1-13.9-0.1-20.8-1.8c-16.6-4-26.7-14.4-30.4-30.9
				c-1.3-5.6-1.5-11.3-1.5-16.9c-0.1-16.4-0.1-32.8,0-49.3c0-6.8,0.4-13.5,2.3-20.1c4.6-15.2,14.8-24.4,30.2-27.9
				c5.6-1.3,11.3-1.5,16.9-1.6c16.5-0.1,32.9-0.1,49.4,0c6.5,0,13.1,0.4,19.5,2.2c15.7,4.4,25.1,14.8,28.6,30.6
				c1.5,6.6,1.5,13.4,1.6,20.1c0.1,14.2,0.1,28.4,0,42.6c0,7-0.1,14-1.7,20.9c-4,16.7-14.5,26.9-31.2,30.6
				c-6.5,1.4-13.1,1.5-19.7,1.6C714.2,776.8,707,776.7,699.7,776.7z M699.8,641.1c0,0.1,0,0.1,0,0.2c-6,0-12-0.1-17.9,0
				c-6.8,0.1-13.7,0-20.5,1.3c-10.7,2.1-17.8,8.3-20.8,19c-1.3,4.7-1.6,9.6-1.6,14.5c-0.1,15.3-0.2,30.6-0.2,45.9
				c0,6.3,0,12.6,1.3,18.8c2.2,10.8,8.4,17.9,19.1,20.8c4.6,1.3,9.3,1.6,13.9,1.6c17.7,0.1,35.5,0.1,53.2,0c3.9,0,7.8-0.4,11.6-1.1
				c10.9-2,18-8.3,21-19.1c1.3-4.8,1.6-9.6,1.6-14.5c0.1-17.4,0.1-34.7,0-52.1c0-4.5-0.3-8.9-1.3-13.3c-1.7-7.5-5.6-13.5-12.5-17.3
				c-4.9-2.7-10.4-3.8-15.9-3.9C720.5,641.5,710.1,641.3,699.8,641.1z"/>
			<path class="st2" d="M699.7,664.2c21.3,0.1,38.3,17.2,38.2,38.4c-0.1,21.1-17.3,38.1-38.5,38c-21.1-0.1-38-17.4-37.8-38.6
				C661.7,681.2,678.9,664.1,699.7,664.2z M699.8,677.5c-13.7,0-24.8,11.1-24.9,24.8c-0.1,13.7,11.1,24.9,24.9,24.9
				c13.8,0,24.9-11.1,24.9-24.9C724.6,688.7,713.5,677.5,699.8,677.5z"/>
			<path class="st2" d="M739.6,671.6c-4.9,0.1-8.9-3.8-9.1-8.7c-0.2-4.8,3.8-9,8.7-9.1c4.9-0.1,9.1,3.8,9.2,8.7
				C748.4,667.5,744.5,671.5,739.6,671.6z"/>
		</g>
	</g>
</g>
<g>
	<g>
		<circle class="st28" cx="301.8" cy="1082.2" r="128"/>
		<g>
			<g>
				<g>
					<g>
						<g>
							<path class="st29" d="M195.1,1088.2c-3.3,0-6-2.7-6-6c0-32.6,14.1-63.6,38.7-85c2.5-2.2,6.3-1.9,8.5,0.6
								c2.2,2.5,1.9,6.3-0.6,8.5c-22,19.1-34.6,46.8-34.6,76C201.1,1085.5,198.5,1088.2,195.1,1088.2z"/>
						</g>
					</g>
				</g>
				<g>
					<g>
						<path class="st29" d="M249.1,995.4c-2.1,0-4.1-1.1-5.2-3c-1.6-2.9-0.6-6.5,2.2-8.2c7.1-4,14.6-7.3,22.3-9.7
							c3.2-1,6.5,0.8,7.5,4c1,3.2-0.8,6.5-4,7.5c-6.9,2.1-13.6,5-19.9,8.6C251.2,995.1,250.1,995.4,249.1,995.4z"/>
					</g>
				</g>
			</g>
		</g>
		<g>
			<g>
				<g>
					<g>
						<path class="st28" d="M301.8,1242.1c-41,0-81.9-15.6-113.1-46.8c-62.4-62.4-62.4-163.9,0-226.3c62.4-62.4,163.9-62.4,226.3,0
							c2.3,2.3,2.3,6.1,0,8.5c-2.3,2.3-6.1,2.3-8.5,0c-57.7-57.7-151.6-57.7-209.3,0c-57.7,57.7-57.7,151.6,0,209.3
							c57.7,57.7,151.6,57.7,209.3,0c2.3-2.3,6.1-2.3,8.5,0c2.3,2.3,2.3,6.1,0,8.5C383.8,1226.5,342.8,1242.1,301.8,1242.1z"/>
					</g>
				</g>
				<g>
					<g>
						<path class="st28" d="M452.5,1120c-0.4,0-0.8,0-1.2-0.1c-3.2-0.7-5.3-3.9-4.6-7.1c0.9-4.5,1.7-9,2.2-13.5
							c0.4-3.3,3.3-5.7,6.6-5.3c3.3,0.4,5.7,3.4,5.3,6.6c-0.6,4.9-1.4,9.8-2.4,14.6C457.8,1118.1,455.3,1120,452.5,1120z"/>
					</g>
				</g>
				<g>
					<g>
						<path class="st28" d="M455.4,1077.6c-3.1,0-5.8-2.4-6-5.6c-1-14.8-4.2-29.2-9.5-43c-2.1-5.5-4.6-11-7.4-16.2
							c-1.6-2.9-0.4-6.6,2.5-8.1c2.9-1.6,6.6-0.4,8.1,2.5c3,5.6,5.7,11.5,8,17.5c5.7,14.9,9.2,30.5,10.3,46.5
							c0.2,3.3-2.3,6.2-5.6,6.4C455.7,1077.6,455.6,1077.6,455.4,1077.6z"/>
					</g>
				</g>
			</g>
		</g>
		<g>
			<g>
				<path class="st14" d="M330.7,1157.1c0-0.1,0-0.3,0-0.4c0,0,0.1,0,0.1,0c0,0.1,0,0.3,0,0.4
					C330.8,1157.1,330.8,1157.1,330.7,1157.1z"/>
			</g>
		</g>
		<g>
			<path d="M316,1143.5c0-0.1,0-0.3,0-0.4c0,0,0.1,0,0.1,0c0,0.1,0,0.3,0,0.4C316.1,1143.5,316.1,1143.5,316,1143.5z"/>
		</g>
	</g>
	<g>
		<g>
			<path class="st30" d="M319.4,1070.6c11.3-13.7,25.2-15,40.1-10.4c11.4,3.5,16.6,12.7,17.8,23.8c1.2,11.3,1.3,22.7,1.6,34
				c0.2,9.1,0,18.2,0.1,27.2c0.1,3.4-0.9,5.1-4.6,4.9c-6.8-0.2-13.5-0.1-20.3,0c-2.9,0-4-1.1-4-4.1c0.1-14.1,0.1-28.2,0-42.4
				c0-2.9-0.3-5.7-0.8-8.6c-1.3-8.1-5.3-11.7-12.8-11.9c-7.9-0.2-13.5,3.9-15.1,11.4c-0.6,2.9-1,6-1,9c-0.1,13.8-0.2,27.7,0.1,41.5
				c0.1,4.2-1.4,5.2-5.2,5.1c-6.5-0.2-13-0.1-19.5,0c-3.2,0.1-4.3-1.3-4.3-4.4c0.1-27.1,0.1-54.2,0-81.3c0-3.7,1.5-4.7,4.9-4.6
				c5.9,0.2,11.8,0.3,17.7,0c4.2-0.2,5.8,1.4,5.3,5.5C319.3,1066.7,319.4,1068.1,319.4,1070.6z"/>
			<path class="st30" d="M275.4,1105.1c0,13.4-0.1,26.8,0.1,40.2c0,3.4-0.8,5-4.5,4.9c-6.6-0.2-13.2-0.2-19.9,0
				c-3.1,0.1-4.4-1-4.4-4.2c0.1-27.2,0.1-54.4,0-81.7c0-3,0.9-4.5,4.2-4.4c6.6,0.2,13.3,0.2,19.9,0c3.5-0.1,4.8,1,4.7,4.6
				C275.3,1078,275.4,1091.5,275.4,1105.1z"/>
			<path class="st30" d="M261,1049.1c-8.8,0-16.5-7.8-16.4-16.6c0-8.8,7.6-16.6,16.5-16.7c8.8-0.1,17,8.2,16.8,16.9
				C277.6,1041.6,269.9,1049.1,261,1049.1z"/>
		</g>
	</g>
	<g>
		<path class="st2" d="M307.1,1059.3c11.3-13.7,25.2-15,40.1-10.4c11.4,3.5,16.6,12.7,17.8,23.8c1.2,11.3,1.3,22.7,1.6,34
			c0.2,9.1,0,18.2,0.1,27.2c0.1,3.4-0.9,5.1-4.6,4.9c-6.8-0.2-13.5-0.1-20.3,0c-2.9,0-4-1.1-4-4.1c0.1-14.1,0.1-28.2,0-42.4
			c0-2.9-0.3-5.7-0.8-8.6c-1.3-8.1-5.3-11.7-12.8-11.9c-7.9-0.2-13.5,3.9-15.1,11.4c-0.6,2.9-1,6-1,9c-0.1,13.8-0.2,27.7,0.1,41.5
			c0.1,4.2-1.4,5.2-5.2,5.1c-6.5-0.2-13-0.1-19.5,0c-3.2,0.1-4.3-1.3-4.3-4.4c0.1-27.1,0.1-54.2,0-81.3c0-3.7,1.5-4.7,4.9-4.6
			c5.9,0.2,11.8,0.3,17.7,0c4.2-0.2,5.8,1.4,5.3,5.5C306.9,1055.4,307.1,1056.9,307.1,1059.3z"/>
		<path class="st2" d="M263.1,1093.8c0,13.4-0.1,26.8,0.1,40.2c0,3.4-0.8,5-4.5,4.9c-6.6-0.2-13.2-0.2-19.9,0
			c-3.1,0.1-4.4-1-4.4-4.2c0.1-27.2,0.1-54.4,0-81.7c0-3,0.9-4.5,4.2-4.4c6.6,0.2,13.3,0.2,19.9,0c3.5-0.1,4.8,1,4.7,4.6
			C263,1066.7,263.1,1080.3,263.1,1093.8z"/>
		<path class="st2" d="M248.7,1037.8c-8.8,0-16.5-7.8-16.4-16.6c0-8.8,7.6-16.6,16.5-16.7c8.8-0.1,17,8.2,16.8,16.9
			C265.2,1030.4,257.5,1037.9,248.7,1037.8z"/>
	</g>
</g>
<g>
	<g>
		<circle class="st31" cx="1091.9" cy="1082.2" r="128"/>
		<g>
			<g>
				<g>
					<g>
						<g>
							<path class="st32" d="M985.3,1088.2c-3.3,0-6-2.7-6-6c0-32.6,14.1-63.6,38.7-85c2.5-2.2,6.3-1.9,8.5,0.6
								c2.2,2.5,1.9,6.3-0.6,8.5c-22,19.1-34.6,46.8-34.6,76C991.3,1085.5,988.6,1088.2,985.3,1088.2z"/>
						</g>
					</g>
				</g>
				<g>
					<g>
						<g>
							<path class="st32" d="M1039.2,995.4c-2.1,0-4.1-1.1-5.2-3c-1.6-2.9-0.6-6.5,2.2-8.2c7.1-4,14.6-7.3,22.3-9.7
								c3.2-1,6.5,0.8,7.5,4c1,3.2-0.8,6.5-4,7.5c-6.9,2.1-13.6,5-19.9,8.6C1041.3,995.1,1040.3,995.4,1039.2,995.4z"/>
						</g>
					</g>
				</g>
			</g>
		</g>
		<g>
			<g>
				<g>
					<g>
						<path class="st31" d="M1091.9,1242.1c-41,0-81.9-15.6-113.1-46.8c-30.2-30.2-46.9-70.4-46.9-113.1s16.6-82.9,46.9-113.1
							c62.4-62.4,163.9-62.4,226.3,0c2.3,2.3,2.3,6.1,0,8.5c-2.3,2.3-6.1,2.3-8.5,0c-57.7-57.7-151.6-57.7-209.3,0
							c-28,28-43.3,65.1-43.3,104.7s15.4,76.7,43.3,104.7c57.7,57.7,151.6,57.7,209.3,0c2.3-2.3,6.1-2.3,8.5,0
							c2.3,2.3,2.3,6.1,0,8.5C1173.9,1226.5,1132.9,1242.1,1091.9,1242.1z"/>
					</g>
				</g>
				<g>
					<g>
						<path class="st31" d="M1242.6,1120c-0.4,0-0.8,0-1.2-0.1c-3.2-0.7-5.3-3.9-4.6-7.1c0.9-4.5,1.7-9,2.2-13.5
							c0.4-3.3,3.4-5.7,6.6-5.3c3.3,0.4,5.7,3.4,5.3,6.6c-0.6,4.9-1.4,9.8-2.4,14.6C1247.9,1118.1,1245.4,1120,1242.6,1120z"/>
					</g>
				</g>
				<g>
					<g>
						<path class="st31" d="M1245.6,1077.6c-3.1,0-5.8-2.4-6-5.6c-1-14.8-4.2-29.2-9.5-43c-2.1-5.5-4.6-11-7.4-16.2
							c-1.6-2.9-0.4-6.6,2.5-8.1c2.9-1.6,6.6-0.4,8.1,2.5c3,5.6,5.7,11.5,8,17.5c5.7,14.9,9.2,30.5,10.3,46.5
							c0.2,3.3-2.3,6.2-5.6,6.4C1245.8,1077.6,1245.7,1077.6,1245.6,1077.6z"/>
					</g>
				</g>
			</g>
		</g>
	</g>
	<g>
		<g>
			<g>
				<path class="st33" d="M1097.8,1100.2c-10,0-19.6,0-29.6,0c0-7.3,0-14.4,0-21.9c17.8,0,35.7,0,53.6,0
					c7.2,20.6-7.4,52.7-28.4,62.4c-27.2,12.6-60,2.5-74.8-23.2c-14.7-25.4-7.9-57.3,16-74.7c21.3-15.5,55-13.5,70.7,4.3
					c-5.4,4.9-10.8,9.7-16.8,15.1c-7.1-5.4-16.3-8.7-27-6.5c-7.1,1.4-13.1,4.7-18,9.9c-10,10.5-12,26.9-5,39.9
					c7,12.9,21,19.5,35.9,17C1087.4,1120.4,1095.8,1112.5,1097.8,1100.2z"/>
			</g>
			<g>
				<path class="st33" d="M1170.3,1113c-5.1,0-9.2,0-13.9,0c0-6.5,0-12.9,0-19.7c-7,0-13.4,0-20.2,0c0-4.8,0-9.2,0-14.1
					c6.4,0,12.8,0,19.8,0c0-6.7,0-12.9,0-19.5c4.8,0,9,0,13.8,0c0,6.1,0,12.4,0,19.1c6.8,0,13,0,19.7,0c0,4.8,0,9.2,0,14.1
					c-6.1,0-12.3,0-19.2,0C1170.3,1099.6,1170.3,1106,1170.3,1113z"/>
			</g>
		</g>
	</g>
	<g>
		<path class="st2" d="M1090.4,1092.9c-10,0-19.6,0-29.6,0c0-7.3,0-14.4,0-21.9c17.8,0,35.7,0,53.6,0c7.2,20.6-7.4,52.7-28.4,62.4
			c-27.2,12.6-60,2.5-74.8-23.2c-14.7-25.4-7.9-57.3,16-74.7c21.3-15.5,55-13.5,70.7,4.3c-5.4,4.9-10.8,9.7-16.8,15.1
			c-7.1-5.4-16.3-8.7-27-6.5c-7.1,1.4-13.1,4.7-18,9.9c-10,10.5-12,26.9-5,39.9c7,12.9,21,19.5,35.9,17
			C1080.1,1113,1088.5,1105.2,1090.4,1092.9z"/>
		<path class="st2" d="M1163,1105.6c-5.1,0-9.2,0-13.9,0c0-6.5,0-12.9,0-19.7c-7,0-13.4,0-20.2,0c0-4.8,0-9.2,0-14.1
			c6.4,0,12.8,0,19.8,0c0-6.7,0-12.9,0-19.5c4.8,0,9,0,13.8,0c0,6.1,0,12.4,0,19.1c6.8,0,13,0,19.7,0c0,4.8,0,9.2,0,14.1
			c-6.1,0-12.3,0-19.2,0C1163,1092.3,1163,1098.7,1163,1105.6z"/>
	</g>
</g>
<g>
	<circle class="st34" cx="700.1" cy="1082.2" r="128"/>
	<g class="st19">
		<g>
			<g>
				<g>
					<g>
						<path class="st35" d="M593.5,1088.2c-3.3,0-6-2.7-6-6c0-32.6,14.1-63.6,38.7-85c2.5-2.2,6.3-1.9,8.5,0.6
							c2.2,2.5,1.9,6.3-0.6,8.5c-22,19.1-34.6,46.8-34.6,76C599.5,1085.5,596.8,1088.2,593.5,1088.2z"/>
					</g>
				</g>
			</g>
			<g>
				<g>
					<g>
						<path class="st35" d="M647.5,995.4c-2.1,0-4.1-1.1-5.2-3c-1.6-2.9-0.6-6.5,2.2-8.2c7.1-4,14.6-7.3,22.3-9.7
							c3.2-1,6.5,0.8,7.5,4c1,3.2-0.8,6.5-4,7.5c-6.9,2.1-13.6,5-19.9,8.6C649.5,995.1,648.5,995.4,647.5,995.4z"/>
					</g>
				</g>
			</g>
		</g>
	</g>
	<g>
		<g>
			<g>
				<path class="st34" d="M700.1,1242.1c-41,0-81.9-15.6-113.1-46.8c-62.4-62.4-62.4-163.9,0-226.3c30.2-30.2,70.4-46.9,113.1-46.9
					s82.9,16.6,113.1,46.9c2.3,2.3,2.3,6.1,0,8.5c-2.3,2.3-6.1,2.3-8.5,0c-28-28-65.1-43.3-104.7-43.3s-76.7,15.4-104.7,43.3
					c-57.7,57.7-57.7,151.6,0,209.3c57.7,57.7,151.6,57.7,209.3,0c2.3-2.3,6.1-2.3,8.5,0c2.3,2.3,2.3,6.1,0,8.5
					C782.1,1226.5,741.1,1242.1,700.1,1242.1z"/>
			</g>
		</g>
		<g>
			<g>
				<path class="st34" d="M850.8,1120c-0.4,0-0.8,0-1.2-0.1c-3.2-0.7-5.3-3.9-4.6-7.1c0.9-4.5,1.7-9,2.2-13.5
					c0.4-3.3,3.4-5.7,6.6-5.3c3.3,0.4,5.7,3.4,5.3,6.6c-0.6,4.9-1.4,9.8-2.4,14.6C856.1,1118.1,853.6,1120,850.8,1120z"/>
			</g>
		</g>
		<g>
			<g>
				<g>
					<path class="st34" d="M853.8,1077.6c-3.1,0-5.8-2.4-6-5.6c-1-14.8-4.2-29.2-9.5-43c-2.1-5.5-4.6-11-7.4-16.2
						c-1.6-2.9-0.4-6.6,2.5-8.1c2.9-1.6,6.6-0.4,8.1,2.5c3,5.6,5.7,11.5,8,17.5c5.7,14.9,9.2,30.5,10.3,46.5
						c0.2,3.3-2.3,6.2-5.6,6.4C854.1,1077.6,853.9,1077.6,853.8,1077.6z"/>
				</g>
			</g>
		</g>
	</g>
	<path class="st36" d="M625.7,1134.5c1.9-0.5,3.5-0.8,5.1-1.3c9.5-2.8,17-8.6,23.2-16.2c3.4-4.2,6.3-8.8,8.5-13.8
		c0.6-1.4,1-2.9,1.2-4.4c0.4-3.2-1-5.8-3.5-7.7c-2.2-1.8-4.9-2.7-7.6-3.7c-2.1-0.8-4.2-1.5-6.3-2.5c-1.1-0.5-2-1.4-2.9-2.2
		c-0.9-0.9-0.7-1.8,0.1-2.7c1.5-1.5,3.9-2,5.9-1.1c3.3,1.4,6.7,2.5,10.4,1.9c0.9-0.1,1.7-0.4,2.5-0.7c2.2-1,2.5-1.6,2.4-4
		c-0.3-7.5-0.6-15-0.8-22.5c-0.4-18.5,13.4-32.5,27.8-36.5c12.9-3.6,25.6-3.2,37.6,3.3c9.1,4.9,15.2,12.4,18.4,22.2
		c1.6,4.9,1.7,10,1.5,15.1c-0.2,6.3-0.5,12.7-0.9,19c-0.1,1.6,0.5,2.4,1.7,3.1c2.6,1.5,5.3,1.5,8.1,0.8c1.7-0.5,3.4-1.1,5-1.7
		c2.1-0.9,4.9-0.4,6.5,1.2c1,0.9,1.1,1.8,0.2,2.8c-0.7,0.8-1.6,1.6-2.6,2.1c-2.1,1-4.4,1.8-6.6,2.7c-1.9,0.8-3.9,1.4-5.7,2.4
		c-5.1,2.8-6.8,7.2-4.5,12.5c5.4,12.5,13.7,22.4,26.1,28.5c3.1,1.5,6.4,2.5,9.8,3.2c0.4,0.1,0.7,0.2,1.1,0.2
		c0.1,0.1,0.1,0.2,0.2,0.3c-0.8,0.7-1.5,1.6-2.5,2c-2.8,1.2-5.6,2.3-8.5,3.1c-2.6,0.8-5.3,1.2-8,1.6c-2.1,0.3-3.3,1.3-3.9,3.3
		c-0.5,1.8-0.9,3.7-1.4,5.5c-0.6,2.5-0.6,2.5-3.2,2c-6-1.2-12.1-1.7-18.2-0.6c-3.9,0.7-7.2,2.6-10.4,4.8c-2.5,1.7-4.9,3.5-7.4,5.1
		c-11.9,7.5-23.9,7.4-35.7-0.2c-2.7-1.8-5.4-3.6-8.1-5.5c-6-4.3-12.8-5.2-19.9-4.7c-2.9,0.2-5.8,0.9-8.7,1.3
		c-1.6,0.3-1.7,0.2-2.1-1.3c-0.5-1.9-0.9-3.9-1.4-5.8c-0.6-2.4-2-3.6-4.6-4c-4.9-0.7-9.7-1.7-14.2-3.7c-1.1-0.5-2.1-1.1-3-1.8
		C626.5,1135.7,626.2,1135.1,625.7,1134.5z"/>
	<path class="st2" d="M618.7,1127.5c1.9-0.5,3.5-0.8,5.1-1.3c9.5-2.8,17-8.6,23.2-16.2c3.4-4.2,6.3-8.8,8.5-13.8
		c0.6-1.4,1-2.9,1.2-4.4c0.4-3.2-1-5.8-3.5-7.7c-2.2-1.8-4.9-2.7-7.6-3.7c-2.1-0.8-4.2-1.5-6.3-2.5c-1.1-0.5-2-1.4-2.9-2.2
		c-0.9-0.9-0.7-1.8,0.1-2.7c1.5-1.5,3.9-2,5.9-1.1c3.3,1.4,6.7,2.5,10.4,1.9c0.9-0.1,1.7-0.4,2.5-0.7c2.2-1,2.5-1.6,2.4-4
		c-0.3-7.5-0.6-15-0.8-22.5c-0.4-18.5,13.4-32.5,27.8-36.5c12.9-3.6,25.6-3.2,37.6,3.3c9.1,4.9,15.2,12.4,18.4,22.2
		c1.6,4.9,1.7,10,1.5,15.1c-0.2,6.3-0.5,12.7-0.9,19c-0.1,1.6,0.5,2.4,1.7,3.1c2.6,1.5,5.3,1.5,8.1,0.8c1.7-0.5,3.4-1.1,5-1.7
		c2.1-0.9,4.9-0.4,6.5,1.2c1,0.9,1.1,1.8,0.2,2.8c-0.7,0.8-1.6,1.6-2.6,2.1c-2.1,1-4.4,1.8-6.6,2.7c-1.9,0.8-3.9,1.4-5.7,2.4
		c-5.1,2.8-6.8,7.2-4.5,12.5c5.4,12.5,13.7,22.4,26.1,28.5c3.1,1.5,6.4,2.5,9.8,3.2c0.4,0.1,0.7,0.2,1.1,0.2
		c0.1,0.1,0.1,0.2,0.2,0.3c-0.8,0.7-1.5,1.6-2.5,2c-2.8,1.2-5.6,2.3-8.5,3.1c-2.6,0.8-5.3,1.2-8,1.6c-2.1,0.3-3.3,1.3-3.9,3.3
		c-0.5,1.8-0.9,3.7-1.4,5.5c-0.6,2.5-0.6,2.5-3.2,2c-6-1.2-12.1-1.7-18.2-0.6c-3.9,0.7-7.2,2.6-10.4,4.8c-2.5,1.7-4.9,3.5-7.4,5.1
		c-11.9,7.5-23.9,7.4-35.7-0.2c-2.7-1.8-5.4-3.6-8.1-5.5c-6-4.3-12.8-5.2-19.9-4.7c-2.9,0.2-5.8,0.9-8.7,1.3
		c-1.6,0.3-1.7,0.2-2.1-1.3c-0.5-1.9-0.9-3.9-1.4-5.8c-0.6-2.4-2-3.6-4.6-4c-4.9-0.7-9.7-1.7-14.2-3.7c-1.1-0.5-2.1-1.1-3-1.8
		C619.5,1128.7,619.2,1128.1,618.7,1127.5z"/>
</g>
</svg>
